<?xml version="1.0" encoding="UTF-8" standalone="no"?>
<!-- Created with Inkscape (http://www.inkscape.org/) -->

<svg
   xmlns:dc="http://purl.org/dc/elements/1.1/"
   xmlns:cc="http://creativecommons.org/ns#"
   xmlns:rdf="http://www.w3.org/1999/02/22-rdf-syntax-ns#"
   xmlns:svg="http://www.w3.org/2000/svg"
   xmlns="http://www.w3.org/2000/svg"
   xmlns:sodipodi="http://sodipodi.sourceforge.net/DTD/sodipodi-0.dtd"
   xmlns:inkscape="http://www.inkscape.org/namespaces/inkscape"
   width="210mm"
   height="297mm"
   id="svg2"
   version="1.1"
   inkscape:version="0.48.2 r9819"
   sodipodi:docname="Neues Dokument 1">
  <defs
     id="defs4" />
  <sodipodi:namedview
     id="base"
     pagecolor="#ffffff"
     bordercolor="#666666"
     borderopacity="1.0"
     inkscape:pageopacity="0.0"
     inkscape:pageshadow="2"
     inkscape:zoom="0.98994949"
     inkscape:cx="299.46704"
     inkscape:cy="436.22078"
     inkscape:document-units="px"
     inkscape:current-layer="layer1"
     showgrid="false"
     showguides="true"
     inkscape:guide-bbox="true"
     inkscape:window-width="1280"
     inkscape:window-height="776"
     inkscape:window-x="0"
     inkscape:window-y="24"
     inkscape:window-maximized="1">
    <sodipodi:guide
       orientation="1,0"
       position="176.7767,536.391"
       id="guide3012" />
    <sodipodi:guide
       orientation="1,0"
       position="314.15744,526.28948"
       id="guide3014" />
    <sodipodi:guide
       orientation="1,0"
       position="-194.95944,586.89863"
       id="guide3016" />
    <sodipodi:guide
       orientation="0,1"
       position="104.04571,619.22351"
       id="guide3018" />
  </sodipodi:namedview>
  <metadata
     id="metadata7">
    <rdf:RDF>
      <cc:Work
         rdf:about="">
        <dc:format>image/svg+xml</dc:format>
        <dc:type
           rdf:resource="http://purl.org/dc/dcmitype/StillImage" />
        <dc:title></dc:title>
      </cc:Work>
    </rdf:RDF>
  </metadata>
  <g
     inkscape:label="Ebene 1"
     inkscape:groupmode="layer"
     id="layer1">
    <path
       sodipodi:type="arc"
       style="fill:#008000;fill-opacity:1"
       id="path2985"
       sodipodi:cx="245.71428"
       sodipodi:cy="533.79077"
       sodipodi:rx="91.428574"
       sodipodi:ry="84.285713"
       d="m 337.14285,533.79077 a 91.428574,84.285713 0 1 1 -182.85714,0 91.428574,84.285713 0 1 1 182.85714,0 z" />
    <g
       id="g2999"
       transform="translate(13.372766,80.674968)">
      <path
         d="m 202.03051,384.16412 c 0,17.56373 -14.5256,31.80195 -32.44382,31.80195 -17.91823,0 -32.44383,-14.23822 -32.44383,-31.80195 0,-17.56373 14.5256,-31.80195 32.44383,-31.80195 17.91822,0 32.44382,14.23822 32.44382,31.80195 z"
         sodipodi:ry="31.801949"
         sodipodi:rx="32.443825"
         sodipodi:cy="384.16412"
         sodipodi:cx="169.58669"
         id="path2987"
         style="fill:#008000;fill-opacity:1"
         sodipodi:type="arc" />
      <path
         transform="matrix(0.68864567,0,0,0.61883372,48.760934,140.3695)"
         sodipodi:type="arc"
         style="fill:#ffffff;fill-opacity:1"
         id="path2993"
         sodipodi:cx="169.58669"
         sodipodi:cy="384.16412"
         sodipodi:rx="32.443825"
         sodipodi:ry="31.801949"
         d="m 202.03051,384.16412 c 0,17.56373 -14.5256,31.80195 -32.44382,31.80195 -17.91823,0 -32.44383,-14.23822 -32.44383,-31.80195 0,-17.56373 14.5256,-31.80195 32.44383,-31.80195 17.91822,0 32.44382,14.23822 32.44382,31.80195 z" />
      <path
         d="m 202.03051,384.16412 c 0,17.56373 -14.5256,31.80195 -32.44382,31.80195 -17.91823,0 -32.44383,-14.23822 -32.44383,-31.80195 0,-17.56373 14.5256,-31.80195 32.44383,-31.80195 17.91822,0 32.44382,14.23822 32.44382,31.80195 z"
         sodipodi:ry="31.801949"
         sodipodi:rx="32.443825"
         sodipodi:cy="384.16412"
         sodipodi:cx="169.58669"
         id="path2995"
         style="fill:#000000;fill-opacity:1"
         sodipodi:type="arc"
         transform="matrix(0.4395622,0,0,0.39648672,89.083394,224.85831)" />
    </g>
    <path
       transform="matrix(0.75000001,0,0,0.52542373,61.428565,270.4673)"
       style="fill:#800000;fill-opacity:1"
       d="m 337.14285,533.79077 c 0,46.54972 -40.93396,84.28571 -91.42857,84.28571 -50.49461,0 -91.42857,-37.73599 -91.42857,-84.28571 0,-46.54971 33.31491,8.15669 83.80952,8.15669 50.49461,0 99.04762,-54.7064 99.04762,-8.15669 z"
       id="path3009"
       inkscape:connector-curvature="0"
       sodipodi:nodetypes="sssss" />
    <g
       transform="matrix(-1,0,0,1,478.54614,80.674968)"
       id="g3020">
      <path
         sodipodi:type="arc"
         style="fill:#008000;fill-opacity:1"
         id="path3022"
         sodipodi:cx="169.58669"
         sodipodi:cy="384.16412"
         sodipodi:rx="32.443825"
         sodipodi:ry="31.801949"
         d="m 202.03051,384.16412 c 0,17.56373 -14.5256,31.80195 -32.44382,31.80195 -17.91823,0 -32.44383,-14.23822 -32.44383,-31.80195 0,-17.56373 14.5256,-31.80195 32.44383,-31.80195 17.91822,0 32.44382,14.23822 32.44382,31.80195 z" />
      <path
         d="m 202.03051,384.16412 c 0,17.56373 -14.5256,31.80195 -32.44382,31.80195 -17.91823,0 -32.44383,-14.23822 -32.44383,-31.80195 0,-17.56373 14.5256,-31.80195 32.44383,-31.80195 17.91822,0 32.44382,14.23822 32.44382,31.80195 z"
         sodipodi:ry="31.801949"
         sodipodi:rx="32.443825"
         sodipodi:cy="384.16412"
         sodipodi:cx="169.58669"
         id="path3024"
         style="fill:#ffffff;fill-opacity:1"
         sodipodi:type="arc"
         transform="matrix(0.68864567,0,0,0.61883372,48.760934,140.3695)" />
      <path
         transform="matrix(0.4395622,0,0,0.39648672,89.083394,224.85831)"
         sodipodi:type="arc"
         style="fill:#000000;fill-opacity:1"
         id="path3026"
         sodipodi:cx="169.58669"
         sodipodi:cy="384.16412"
         sodipodi:rx="32.443825"
         sodipodi:ry="31.801949"
         d="m 202.03051,384.16412 c 0,17.56373 -14.5256,31.80195 -32.44382,31.80195 -17.91823,0 -32.44383,-14.23822 -32.44383,-31.80195 0,-17.56373 14.5256,-31.80195 32.44383,-31.80195 17.91822,0 32.44382,14.23822 32.44382,31.80195 z" />
    </g>
  </g>
</svg>
